<?xml version="1.0" encoding="utf-8"?>
<!-- Generator: Adobe Illustrator 25.2.0, SVG Export Plug-In . SVG Version: 6.00 Build 0)  -->
<svg version="1.1" xmlns="http://www.w3.org/2000/svg" xmlns:xlink="http://www.w3.org/1999/xlink" x="0px" y="0px"
	 viewBox="0 0 500 500" style="enable-background:new 0 0 500 500;" xml:space="preserve">
<style type="text/css">
	.st0{display:none;}
	.st1{display:inline;}
	.st2{opacity:0.13;fill:#FFFFFF;}
	.st3{opacity:0.13;}
	.st4{fill:none;stroke:#A59FFF;stroke-miterlimit:10;}
	.st5{opacity:0.13;fill:none;stroke:#0000FF;stroke-width:3;stroke-miterlimit:10;}
	.st6{opacity:0.1;fill:#0000FF;}
	.st7{fill:#08A88A;}
	.st8{fill:#121331;}
	.st9{fill:none;stroke:#121331;stroke-width:12;stroke-linecap:round;stroke-linejoin:round;stroke-miterlimit:10;}
	.st10{fill:#FFFFFF;}
</style>
<g id="grid" class="st0">
	<g class="st1">
		<rect class="st2" width="500" height="500"/>
		<g class="st3">
			<line class="st4" x1="36.51" y1="36.51" x2="36.51" y2="463.49"/>
			<line class="st4" x1="49.85" y1="36.51" x2="49.85" y2="463.49"/>
			<line class="st4" x1="63.19" y1="36.51" x2="63.19" y2="463.49"/>
			<line class="st4" x1="76.54" y1="36.51" x2="76.54" y2="463.49"/>
			<line class="st4" x1="89.88" y1="36.51" x2="89.88" y2="463.49"/>
			<line class="st4" x1="103.22" y1="36.51" x2="103.22" y2="463.49"/>
			<line class="st4" x1="116.57" y1="36.51" x2="116.57" y2="463.49"/>
			<line class="st4" x1="129.91" y1="36.51" x2="129.91" y2="463.49"/>
			<line class="st4" x1="143.25" y1="36.51" x2="143.25" y2="463.49"/>
			<line class="st4" x1="156.6" y1="36.51" x2="156.6" y2="463.49"/>
			<line class="st4" x1="169.94" y1="36.51" x2="169.94" y2="463.49"/>
			<line class="st4" x1="183.28" y1="36.51" x2="183.28" y2="463.49"/>
			<line class="st4" x1="196.63" y1="36.51" x2="196.63" y2="463.49"/>
			<line class="st4" x1="209.97" y1="36.51" x2="209.97" y2="463.49"/>
			<line class="st4" x1="223.31" y1="36.51" x2="223.31" y2="463.49"/>
			<line class="st4" x1="236.66" y1="36.51" x2="236.66" y2="463.49"/>
			<line class="st4" x1="250" y1="36.51" x2="250" y2="463.49"/>
			<line class="st4" x1="263.34" y1="36.51" x2="263.34" y2="463.49"/>
			<line class="st4" x1="276.69" y1="36.51" x2="276.69" y2="463.49"/>
			<line class="st4" x1="290.03" y1="36.51" x2="290.03" y2="463.49"/>
			<line class="st4" x1="303.37" y1="36.51" x2="303.37" y2="463.49"/>
			<line class="st4" x1="316.72" y1="36.51" x2="316.72" y2="463.49"/>
			<line class="st4" x1="330.06" y1="36.51" x2="330.06" y2="463.49"/>
			<line class="st4" x1="343.4" y1="36.51" x2="343.4" y2="463.49"/>
			<line class="st4" x1="356.75" y1="36.51" x2="356.75" y2="463.49"/>
			<line class="st4" x1="370.09" y1="36.51" x2="370.09" y2="463.49"/>
			<line class="st4" x1="383.43" y1="36.51" x2="383.43" y2="463.49"/>
			<line class="st4" x1="396.78" y1="36.51" x2="396.78" y2="463.49"/>
			<line class="st4" x1="410.12" y1="36.51" x2="410.12" y2="463.49"/>
			<line class="st4" x1="436.81" y1="36.51" x2="436.81" y2="463.49"/>
			<line class="st4" x1="450.15" y1="36.51" x2="450.15" y2="463.49"/>
			<line class="st4" x1="463.49" y1="36.51" x2="463.49" y2="463.49"/>
			<line class="st4" x1="423.46" y1="36.51" x2="423.46" y2="463.49"/>
			<line class="st4" x1="463.49" y1="36.51" x2="36.51" y2="36.51"/>
			<line class="st4" x1="463.49" y1="49.85" x2="36.51" y2="49.85"/>
			<line class="st4" x1="463.49" y1="63.19" x2="36.51" y2="63.19"/>
			<line class="st4" x1="463.49" y1="76.54" x2="36.51" y2="76.54"/>
			<line class="st4" x1="463.49" y1="89.88" x2="36.51" y2="89.88"/>
			<line class="st4" x1="463.49" y1="103.22" x2="36.51" y2="103.22"/>
			<line class="st4" x1="463.49" y1="116.57" x2="36.51" y2="116.57"/>
			<line class="st4" x1="463.49" y1="129.91" x2="36.51" y2="129.91"/>
			<line class="st4" x1="463.49" y1="143.25" x2="36.51" y2="143.25"/>
			<line class="st4" x1="463.49" y1="156.6" x2="36.51" y2="156.6"/>
			<line class="st4" x1="463.49" y1="169.94" x2="36.51" y2="169.94"/>
			<line class="st4" x1="463.49" y1="183.28" x2="36.51" y2="183.28"/>
			<line class="st4" x1="463.49" y1="196.63" x2="36.51" y2="196.63"/>
			<line class="st4" x1="463.49" y1="209.97" x2="36.51" y2="209.97"/>
			<line class="st4" x1="463.49" y1="223.31" x2="36.51" y2="223.31"/>
			<line class="st4" x1="463.49" y1="236.66" x2="36.51" y2="236.66"/>
			<line class="st4" x1="463.49" y1="250" x2="36.51" y2="250"/>
			<line class="st4" x1="463.49" y1="263.34" x2="36.51" y2="263.34"/>
			<line class="st4" x1="463.49" y1="276.69" x2="36.51" y2="276.69"/>
			<line class="st4" x1="463.49" y1="290.03" x2="36.51" y2="290.03"/>
			<line class="st4" x1="463.49" y1="303.37" x2="36.51" y2="303.37"/>
			<line class="st4" x1="463.49" y1="316.72" x2="36.51" y2="316.72"/>
			<line class="st4" x1="463.49" y1="330.06" x2="36.51" y2="330.06"/>
			<line class="st4" x1="463.49" y1="343.4" x2="36.51" y2="343.4"/>
			<line class="st4" x1="463.49" y1="356.75" x2="36.51" y2="356.75"/>
			<line class="st4" x1="463.49" y1="370.09" x2="36.51" y2="370.09"/>
			<line class="st4" x1="463.49" y1="383.43" x2="36.51" y2="383.43"/>
			<line class="st4" x1="463.49" y1="396.78" x2="36.51" y2="396.78"/>
			<line class="st4" x1="463.49" y1="410.12" x2="36.51" y2="410.12"/>
			<line class="st4" x1="463.49" y1="436.81" x2="36.51" y2="436.81"/>
			<line class="st4" x1="463.49" y1="450.15" x2="36.51" y2="450.15"/>
			<line class="st4" x1="463.49" y1="463.49" x2="36.51" y2="463.49"/>
			<line class="st4" x1="463.49" y1="423.46" x2="36.51" y2="423.46"/>
		</g>
		<line class="st5" x1="250" y1="36.51" x2="250" y2="460.94"/>
		<line class="st5" x1="37.79" y1="250" x2="462.21" y2="250"/>
		<rect x="169.94" y="169.94" class="st5" width="160.12" height="160.12"/>
		<rect x="89.88" y="89.88" class="st5" width="320.24" height="320.24"/>
		<rect x="63.19" y="116.57" class="st5" width="373.61" height="266.87"/>
		<rect x="116.57" y="63.19" class="st5" width="266.87" height="373.61"/>
		<path class="st5" d="M269.33,63.19h-38.65c-92.5,0-167.48,74.98-167.48,167.48v38.65c0,92.5,74.98,167.48,167.48,167.48h38.65
			c92.5,0,167.48-74.98,167.48-167.48v-38.65C436.81,138.18,361.82,63.19,269.33,63.19z"/>
		<rect x="436.81" class="st6" width="63.19" height="500"/>
		<rect class="st6" width="63.19" height="500"/>
		
			<rect x="218.4" y="218.4" transform="matrix(-1.836970e-16 1 -1 -1.836970e-16 718.4029 218.4029)" class="st6" width="63.19" height="500"/>
		
			<rect x="218.4" y="-218.4" transform="matrix(-1.836970e-16 1 -1 -1.836970e-16 281.5971 -218.4029)" class="st6" width="63.19" height="500"/>
	</g>
</g>
<g id="outline">
	<g>
		<path class="st7" d="M171.18,381.05c-3.73,0-7.46-0.73-11.03-2.18c-7.21-2.94-12.83-8.5-15.83-15.65L58.27,158.45
			c-3-7.14-3.03-15.04-0.09-22.25c2.94-7.21,8.5-12.84,15.64-15.84l97.75-41.07c10.99-4.61,23.52-2.11,31.93,6.36
			c2.33,2.35,2.32,6.15-0.03,8.49c-2.35,2.33-6.15,2.32-8.49-0.03c-4.95-4.99-12.32-6.46-18.77-3.75l-97.75,41.07
			c-4.19,1.76-7.44,5.06-9.18,9.31c-1.73,4.24-1.72,8.88,0.04,13.06l86.06,204.78c1.76,4.19,5.06,7.45,9.3,9.18
			c4.24,1.73,8.88,1.71,13.07-0.05l35.84-15.06c3.05-1.29,6.57,0.15,7.86,3.21c1.28,3.05-0.15,6.57-3.21,7.86l-35.84,15.06
			C178.8,380.29,175,381.05,171.18,381.05z"/>
		<path class="st7" d="M264.26,246.28c-3.31,0-6-2.68-6-6v-0.01c0-3.31,2.69-6,6-6s6,2.69,6,6S267.57,246.28,264.26,246.28z"/>
		<path class="st7" d="M117.7,143.84c-2.34,0-4.57-1.38-5.53-3.68c-1.28-3.05,0.15-6.57,3.21-7.86l35.64-14.98
			c3.05-1.29,6.57,0.15,7.86,3.21c1.28,3.05-0.15,6.57-3.21,7.86l-35.64,14.98C119.26,143.69,118.47,143.84,117.7,143.84z"/>
	</g>
	<path class="st8" d="M304.12,364.18H198.1c-16.04,0-29.09-13.05-29.09-29.09V112.97c0-16.04,13.05-29.09,29.09-29.09h106.02
		c16.04,0,29.09,13.05,29.09,29.09v124.39c0,1.98-0.98,3.83-2.61,4.95c-1.63,1.12-3.72,1.36-5.56,0.64l-35.06-13.63
		c-0.48-0.14-1.68-0.38-4.63-0.69c-0.18-0.02-0.36-0.04-0.54-0.07c-6.4,0.18-12,4.29-14.05,10.35c-2.68,7.96,1.61,16.62,9.56,19.31
		l48.84,16.81c2.42,0.83,4.05,3.11,4.05,5.67v54.39C333.21,351.14,320.16,364.18,304.12,364.18z M198.1,95.88
		c-9.42,0-17.09,7.67-17.09,17.09V335.1c0,9.42,7.67,17.09,17.09,17.09h106.02c9.42,0,17.09-7.67,17.09-17.09v-50.11l-44.76-15.41
		c-14.19-4.8-21.85-20.28-17.06-34.5c3.74-11.08,14.13-18.52,25.86-18.52c0.43,0,0.85,0.05,1.26,0.13c0.04,0,0.08,0.01,0.12,0.01
		c2.48,0.27,5.29,0.61,7.3,1.29c0.08,0.03,0.16,0.06,0.24,0.09l27.04,10.51V112.97c0-9.42-7.67-17.09-17.09-17.09H198.1z"/>
	<path class="st7" d="M270.44,122.99h-38.66c-3.31,0-6-2.69-6-6s2.69-6,6-6h38.66c3.31,0,6,2.69,6,6S273.76,122.99,270.44,122.99z"
		/>
	<path class="st8" d="M308.19,415.89c-1.47,0-2.93-0.54-4.08-1.6l-55.9-51.71c-1.81-1.68-2.41-4.29-1.51-6.59
		c0.9-2.3,3.12-3.81,5.59-3.81h51.83c9.42,0,17.09-7.67,17.09-17.09v-50.11l-44.76-15.41c-14.19-4.8-21.85-20.28-17.06-34.5
		c3.74-11.08,14.13-18.52,25.86-18.52c0.43,0,0.85,0.05,1.26,0.13c0.04,0,0.08,0.01,0.12,0.01c2.48,0.27,5.29,0.61,7.3,1.29
		c0.08,0.03,0.16,0.06,0.24,0.09l35.12,13.65l32.39,11.29c0.34,0.12,0.67,0.27,0.98,0.44c6.55,3.48,11.45,9.55,13.44,16.65
		l15.52,55.32l10.76,33.44c0.82,2.55-0.15,5.33-2.38,6.83c0,0-58.98,39.46-88.48,59.18C310.51,415.56,309.35,415.89,308.19,415.89z
		 M267.61,364.18l41.18,38.09c25.66-17.16,68-45.49,80.78-54.03L380.16,319c-0.02-0.07-0.05-0.14-0.07-0.22l-15.55-55.42
		c-1.1-3.93-3.69-7.18-7.28-9.17l-32.03-11.16c-0.07-0.02-0.13-0.05-0.2-0.07l-35.06-13.63c-0.48-0.14-1.68-0.38-4.63-0.69
		c-0.18-0.02-0.36-0.04-0.54-0.07c-6.4,0.18-12,4.29-14.05,10.35c-2.68,7.96,1.61,16.62,9.56,19.31l48.84,16.81
		c2.42,0.83,4.05,3.11,4.05,5.67v54.39c0,16.04-13.05,29.09-29.09,29.09H267.61z"/>
	<path class="st8" d="M326.21,442.81c-0.39,0-0.78-0.04-1.17-0.11c-1.56-0.31-2.94-1.23-3.82-2.55l-18.01-26.92
		c-1.84-2.75-1.1-6.48,1.65-8.32c2.75-1.84,6.48-1.11,8.32,1.65l14.68,21.93l78.48-52.53l-14.66-21.9c-1.84-2.75-1.1-6.48,1.65-8.32
		c2.75-1.84,6.48-1.11,8.32,1.65l18,26.89c1.84,2.75,1.1,6.48-1.65,8.32l-88.45,59.2C328.55,442.46,327.39,442.81,326.21,442.81z"/>
</g>
</svg>
